<?xml version="1.0" encoding="UTF-8" standalone="no"?>
<svg
        xmlns="http://www.w3.org/2000/svg"
        version="1.0"
        width="350.20877"
        height="281.45123"
>
    <defs/>
    <path
            d="M 302.69117,110.41465 C 309.80992,123.1559 314.71742,136.48215 317.33367,150.2659 C 324.26242,150.5434 328.85242,154.56715 330.65492,161.95465 C 334.39492,158.2534 345.90867,145.29965 348.07617,124.45965 C 337.96367,114.8434 310.00492,111.21215 302.69117,110.41465 L 302.69117,110.41465 z"
            style="fill:#007fff"/>
    <path
            d="M 257.54867,119.8859 C 257.22242,120.0009 255.50742,114.31215 250.86867,107.6484 C 246.51367,100.89965 237.61742,94.07215 228.18367,94.40715 C 208.33992,93.28215 192.54367,112.46465 192.68617,111.9234 C 192.37867,111.7334 193.80367,108.7659 198.74492,104.0484 C 203.57867,99.60715 212.73992,92.4509 227.73992,92.1434 C 243.43242,92.4784 250.84992,103.8884 253.98492,109.7159 C 257.32492,116.1659 257.79367,119.8334 257.54867,119.8859 z M 166.81117,92.67215 C 166.49867,92.98465 166.01117,93.0359 165.63992,92.7959 C 165.26867,92.5559 165.11242,92.08965 165.27367,91.67715 C 165.63992,90.70715 174.42867,67.81965 185.48367,56.7634 C 185.72242,56.5234 186.07492,56.43215 186.40117,56.52465 C 199.90742,60.32215 211.43617,77.0209 211.91867,77.7309 C 212.11867,78.01715 212.13867,78.38965 211.97742,78.69715 C 211.81117,79.00465 211.49367,79.1959 211.14742,79.1959 C 196.90992,79.1959 176.75742,82.7259 166.81117,92.67215 z M 152.06992,99.24465 C 151.98742,99.75465 151.50367,100.10215 150.99617,100.01715 C 150.48367,99.9334 150.13742,99.44965 150.22492,98.93965 C 150.55242,96.9609 158.51117,50.37965 182.90992,41.54465 C 183.06617,41.4884 183.23242,41.4734 183.39367,41.5034 C 204.76117,45.27465 225.60617,72.77715 226.47992,73.94715 C 226.79242,74.3609 226.70867,74.9484 226.29367,75.25965 C 225.87867,75.5709 225.29367,75.48465 224.98117,75.0709 L 224.98117,75.07215 C 224.77117,74.79215 203.87742,47.2259 183.31992,43.4034 C 160.13242,52.09215 152.15367,98.77215 152.06992,99.24465 z M 316.56242,152.1109 C 316.33742,152.1109 316.12867,152.0334 315.96242,151.8959 C 315.86492,151.94965 315.76617,152.0034 315.65492,152.0434 C 311.09867,152.40965 297.12867,162.8384 297.05617,162.91715 C 296.34242,162.3509 308.84742,151.2034 315.14117,150.7784 C 315.28867,150.7484 315.39617,150.7434 315.51742,150.73465 C 311.25992,128.20215 300.81117,106.8884 284.44367,87.3784 C 269.69242,69.80465 250.50367,54.03715 227.40742,40.5184 C 167.92992,5.70715 99.89742,-4.3966 66.82117,5.59465 C 91.09867,19.77215 122.81242,56.44965 130.39117,86.36215 C 130.46367,86.65715 130.39117,86.96965 130.19492,87.2009 C 129.99992,87.43215 129.70242,87.5534 129.39992,87.5259 C 69.06242,82.11715 16.87492,115.3734 2.19242,149.7384 C 57.72992,146.23715 95.51242,175.1434 95.88867,175.4359 C 96.11867,175.61215 96.24992,175.8859 96.24992,176.1734 C 96.24992,176.46715 96.11867,176.73965 95.88867,176.9159 C 56.82617,207.3459 32.23617,243.9984 30.89867,261.77715 C 75.32242,241.0984 124.71242,250.7659 150.91867,260.0634 C 135.38117,247.7484 131.16242,229.8434 130.03867,222.0059 C 128.30617,209.90465 130.24867,201.6134 134.62867,195.1484 C 138.87742,188.8734 146.43117,184.47965 154.22367,184.9334 C 161.90492,185.3784 169.81992,190.41215 179.02367,201.43715 C 177.65617,195.5684 176.56242,187.4434 177.29492,174.9234 C 177.92992,164.0109 181.74867,147.77465 192.02117,132.96215 C 200.19492,121.1809 209.52117,110.95215 227.66117,109.90965 C 234.43867,109.51965 241.57242,112.34965 246.68992,117.38465 C 258.73992,129.2409 265.78617,154.86965 263.99867,176.25215 C 262.44617,194.8309 261.32367,208.2534 265.78117,212.04965 C 267.32867,213.3634 269.68742,213.5984 273.00367,212.7684 C 273.77992,212.57215 274.56992,212.25965 275.37617,211.84715 C 275.79117,211.52965 276.42117,211.0959 277.42242,210.41215 C 277.99367,210.0309 278.64242,209.58215 279.31617,209.1134 C 280.38117,208.21965 281.56742,207.15965 282.91992,205.84215 C 282.96367,205.79715 283.00367,205.7584 283.05242,205.71465 C 286.86992,201.78465 290.80117,196.74465 294.66867,191.77965 C 301.69492,182.7609 308.32992,174.23965 313.88742,173.1709 C 316.28867,172.71215 317.61242,173.8159 318.29617,174.8259 C 322.60242,181.15465 315.19992,204.27465 308.82867,216.3134 C 321.52367,206.77465 332.56367,178.4584 328.90117,162.6484 C 327.27992,155.6559 323.12992,152.1109 316.56242,152.1109 L 316.56242,152.1109 z"
            style="fill:#007fff"/>
    <path
            d="M 177.47117,239.76465 C 166.98242,234.14465 159.02367,225.69215 156.00117,218.0859 C 155.72242,217.39215 155.47867,216.3134 155.05867,215.7909 C 150.35117,217.88465 149.06242,222.98715 148.49617,222.80715 C 147.96867,224.33965 148.17867,215.8984 155.68367,212.6659 C 163.18867,209.4309 169.34117,213.44215 169.10617,213.52965 C 168.97992,214.23715 162.17242,212.70465 157.31492,214.76965 C 157.48492,215.1409 157.66617,215.59465 157.82742,216.12715 C 159.13617,221.25965 167.60242,232.19715 178.18367,238.42715 C 188.38367,245.1259 198.88742,248.53465 198.68117,248.9934 C 198.69117,249.05715 187.72992,245.7759 177.47117,239.76465 z M 263.93117,246.1709 C 263.93117,243.51465 265.32742,241.04965 267.71492,238.9834 C 264.60992,236.2059 257.45117,231.5084 245.42492,232.9434 C 218.47617,236.15215 196.93867,227.0409 179.57992,205.08965 C 169.89742,192.8534 163.08617,187.5409 154.01867,187.0184 C 146.98242,186.6134 139.52617,191.7109 136.51867,196.04715 C 132.15867,202.3459 130.24367,210.19215 131.89492,221.73715 C 133.13492,230.39965 138.27117,251.74215 159.07242,263.23215 C 160.78617,263.96965 162.32867,264.67715 163.65242,265.3409 C 171.08367,269.05715 190.87367,277.8559 214.01867,279.3059 C 238.87242,280.8584 260.05867,273.6709 277.06117,257.9784 C 269.30242,255.8784 263.93117,251.3859 263.93117,246.1709 L 263.93117,246.1709 z"
            style="fill:#ffccb2"/>
    <path
            d="M 186.42117,58.49465 C 178.38867,66.7859 171.44117,81.8184 168.51117,88.71215 C 181.24992,78.9084 201.93867,77.51715 209.32117,77.3459 C 206.24992,73.2659 196.82117,61.71465 186.42117,58.49465 L 186.42117,58.49465 z"
            style="fill:#ffccb2"/>
    <path
            d="M 287.52492,238.3734 C 282.50492,238.3734 278.43742,240.07215 278.43742,242.17215 C 278.43742,244.26715 282.50492,245.9659 287.52492,245.9659 C 292.53867,245.9659 296.60617,244.26715 296.60617,242.17215 C 296.60617,240.07215 292.53867,238.3734 287.52492,238.3734 L 287.52492,238.3734 z"
            style="fill:#ffffff"/>
    <path
            d="M 217.68117,175.3734 C 211.01117,191.00715 201.84117,202.07715 197.19742,200.09465 C 192.55867,198.11715 194.20367,183.83465 200.87367,168.19965 C 207.54367,152.5659 216.71867,141.4909 221.35242,143.4734 C 225.99617,145.4509 224.35117,159.7334 217.68117,175.3734 z M 316.74867,175.8809 C 316.40117,175.3684 315.76242,174.7184 314.23867,175.01215 C 309.37492,175.94965 302.65117,184.58215 296.14742,192.9309 C 294.98992,194.4209 293.82867,195.90965 292.66117,197.37965 C 292.66117,197.39465 292.65617,197.4134 292.65117,197.4334 C 291.51367,208.8734 279.22867,232.29965 271.98242,233.7834 C 269.75617,234.23715 267.89992,232.8709 267.70992,229.9209 C 267.39742,225.06715 268.49617,218.73465 269.96117,215.10715 C 267.73492,215.17965 265.94742,214.6484 264.56992,213.4759 C 259.60492,209.25465 260.31742,197.7559 262.12867,176.0959 C 263.87742,155.20215 256.61617,130.45965 244.91742,118.9484 C 240.20992,114.32215 234.17992,112.1734 227.29992,112.58965 C 210.71242,113.5934 201.50367,123.1059 193.68117,134.41715 C 183.87742,148.5809 179.89242,165.83215 179.16992,174.9234 C 177.68117,193.6884 180.95242,201.9359 181.21117,204.1284 C 198.10617,225.3759 219.03867,234.1934 245.19992,231.0784 C 258.37367,229.5109 266.02117,234.76465 269.24867,237.80215 C 273.46742,234.9209 279.80992,233.0859 286.91367,233.0859 C 289.94617,233.0859 292.83742,233.42715 295.48867,234.03715 C 300.85492,225.90715 305.25867,218.74965 305.34742,218.6034 C 305.35117,218.6034 305.35117,218.6034 305.35117,218.5984 C 305.35617,218.5984 305.35117,218.5934 305.35117,218.5934 C 312.18242,207.8334 320.70367,181.6909 316.74867,175.8809 L 316.74867,175.8809 z"
            style="fill:#ffffff"/>
    <path
            d="M 217.77367,151.63215 C 216.13742,150.9634 213.09117,154.64965 210.96742,159.85965 C 208.84742,165.06965 208.45742,169.8359 210.09742,170.50465 C 211.73367,171.1684 214.77992,167.48715 216.90492,162.27715 C 219.02367,157.06215 219.41367,152.29715 217.77367,151.63215 L 217.77367,151.63215 z"
            style="fill:#ffffff"/>
    <path
            d="M 279.70242,214.27215 C 280.37617,212.71465 280.81617,211.15965 281.12367,209.7384 C 280.57617,210.1434 280.03867,210.53465 279.50742,210.90965 C 278.73117,211.56465 277.95867,212.16715 277.18742,212.69965 C 276.33367,213.33965 275.56617,213.85215 274.87867,214.26215 C 273.22242,219.12965 273.18367,220.5809 274.53117,220.8834 C 275.17117,221.02465 277.65617,219.0084 279.70242,214.27215 L 279.70242,214.27215 z"
            style="fill:#ffffff"/>
    <path
            d="M 168.51117,88.71215 C 171.44117,81.8184 178.38867,66.7859 186.42117,58.49465 C 196.82117,61.71465 206.24992,73.2659 209.32117,77.3459 C 201.93867,77.51715 181.24992,78.9084 168.51117,88.71215 z M 211.97742,78.69715 C 212.13867,78.38965 212.11867,78.01715 211.91867,77.7309 C 211.43617,77.0209 199.90742,60.32215 186.40117,56.52465 C 186.07492,56.43215 185.72242,56.5234 185.48367,56.7634 C 174.42867,67.81965 165.63992,90.70715 165.27367,91.67715 C 165.11242,92.08965 165.26867,92.5559 165.63992,92.7959 C 166.01117,93.0359 166.49867,92.98465 166.81117,92.67215 C 176.75742,82.7259 196.90992,79.1959 211.14742,79.1959 C 211.49367,79.1959 211.81117,79.00465 211.97742,78.69715 L 211.97742,78.69715 z"
            style="fill:#000000"/>
    <path
            d="M 216.90492,162.27715 C 214.77992,167.48715 211.73367,171.1684 210.09742,170.50465 C 208.45742,169.8359 208.84742,165.06965 210.96742,159.85965 C 213.09117,154.64965 216.13742,150.9634 217.77367,151.63215 C 219.41367,152.29715 219.02367,157.06215 216.90492,162.27715 z M 221.35242,143.4734 C 216.71867,141.4909 207.54367,152.5659 200.87367,168.19965 C 194.20367,183.83465 192.55867,198.11715 197.19742,200.09465 C 201.84117,202.07715 211.01117,191.00715 217.68117,175.3734 C 224.35117,159.7334 225.99617,145.4509 221.35242,143.4734 L 221.35242,143.4734 z"
            style="fill:#000000"/>
    <path
            d="M 183.31992,43.4034 C 203.87742,47.2259 224.77117,74.79215 224.98117,75.07215 L 224.98117,75.0709 C 225.29367,75.48465 225.87867,75.5709 226.29367,75.25965 C 226.70867,74.9484 226.79242,74.3609 226.47992,73.94715 C 225.60617,72.77715 204.76117,45.27465 183.39367,41.5034 C 183.23242,41.4734 183.06617,41.4884 182.90992,41.54465 C 158.51117,50.37965 150.55242,96.9609 150.22492,98.93965 C 150.13742,99.44965 150.48367,99.9334 150.99617,100.01715 C 151.50367,100.10215 151.98742,99.75465 152.06992,99.24465 C 152.15367,98.77215 160.13242,52.09215 183.31992,43.4034 L 183.31992,43.4034 z"
            style="fill:#000000"/>
    <path
            d="M 227.73992,92.1434 C 212.73992,92.4509 203.57867,99.60715 198.74492,104.0484 C 193.80367,108.7659 192.37867,111.7334 192.68617,111.9234 C 192.54367,112.46465 208.33992,93.28215 228.18367,94.40715 C 237.61742,94.07215 246.51367,100.89965 250.86867,107.6484 C 255.50742,114.31215 257.22242,120.0009 257.54867,119.8859 C 257.79367,119.8334 257.32492,116.1659 253.98492,109.7159 C 250.84992,103.8884 243.43242,92.4784 227.73992,92.1434 L 227.73992,92.1434 z"
            style="fill:#000000"/>
    <path
            d="M 178.18367,238.42715 C 167.60242,232.19715 159.13617,221.25965 157.82742,216.12715 C 157.66617,215.59465 157.48492,215.1409 157.31492,214.76965 C 162.17242,212.70465 168.97992,214.23715 169.10617,213.52965 C 169.34117,213.44215 163.18867,209.4309 155.68367,212.6659 C 148.17867,215.8984 147.96867,224.33965 148.49617,222.80715 C 149.06242,222.98715 150.35117,217.88465 155.05867,215.7909 C 155.47867,216.3134 155.72242,217.39215 156.00117,218.0859 C 159.02367,225.69215 166.98242,234.14465 177.47117,239.76465 C 187.72992,245.7759 198.69117,249.05715 198.68117,248.9934 C 198.88742,248.53465 188.38367,245.1259 178.18367,238.42715 L 178.18367,238.42715 z"
            style="fill:#000000"/>
    <path
            d="M 330.65492,161.95465 C 328.85242,154.56715 324.26242,150.5434 317.33367,150.2659 C 314.71742,136.48215 309.80992,123.1559 302.69117,110.41465 C 310.00492,111.21215 337.96367,114.8434 348.07617,124.45965 C 345.90867,145.29965 334.39492,158.2534 330.65492,161.95465 z M 308.82867,216.3134 C 315.19992,204.27465 322.60242,181.15465 318.29617,174.8259 C 317.61242,173.8159 316.28867,172.71215 313.88742,173.1709 C 308.32992,174.23965 301.69492,182.7609 294.66867,191.77965 C 290.80117,196.74465 286.86992,201.78465 283.05242,205.71465 C 283.00367,205.7584 282.96367,205.79715 282.91992,205.84215 C 281.56742,207.15965 280.38117,208.21965 279.31617,209.1134 C 278.64242,209.58215 277.99367,210.0309 277.42242,210.41215 C 276.42117,211.0959 275.79117,211.52965 275.37617,211.84715 C 274.56992,212.25965 273.77992,212.57215 273.00367,212.7684 C 269.68742,213.5984 267.32867,213.3634 265.78117,212.04965 C 261.32367,208.2534 262.44617,194.8309 263.99867,176.25215 C 265.78617,154.86965 258.73992,129.2409 246.68992,117.38465 C 241.57242,112.34965 234.43867,109.51965 227.66117,109.90965 C 209.52117,110.95215 200.19492,121.1809 192.02117,132.96215 C 181.74867,147.77465 177.92992,164.0109 177.29492,174.9234 C 176.56242,187.4434 177.65617,195.5684 179.02367,201.43715 C 169.81992,190.41215 161.90492,185.3784 154.22367,184.9334 C 146.43117,184.47965 138.87742,188.8734 134.62867,195.1484 C 130.24867,201.6134 128.30617,209.90465 130.03867,222.0059 C 131.16242,229.8434 135.38117,247.7484 150.91867,260.0634 C 124.71242,250.7659 75.32242,241.0984 30.89867,261.77715 C 32.23617,243.9984 56.82617,207.3459 95.88867,176.9159 C 96.11867,176.73965 96.24992,176.46715 96.24992,176.1734 C 96.24992,175.8859 96.11867,175.61215 95.88867,175.4359 C 95.51242,175.1434 57.72992,146.23715 2.19242,149.7384 C 16.87492,115.3734 69.06242,82.11715 129.39992,87.5259 C 129.70242,87.5534 129.99992,87.43215 130.19492,87.2009 C 130.39117,86.96965 130.46367,86.65715 130.39117,86.36215 C 122.81242,56.44965 91.09867,19.77215 66.82117,5.59465 C 99.89742,-4.3966 167.92992,5.70715 227.40742,40.5184 C 250.50367,54.03715 269.69242,69.80465 284.44367,87.3784 C 300.81117,106.8884 311.25992,128.20215 315.51742,150.73465 C 315.39617,150.7434 315.28867,150.7484 315.14117,150.7784 C 308.84742,151.2034 296.34242,162.3509 297.05617,162.91715 C 297.12867,162.8384 311.09867,152.40965 315.65492,152.0434 C 315.76617,152.0034 315.86492,151.94965 315.96242,151.8959 C 316.12867,152.0334 316.33742,152.1109 316.56242,152.1109 C 323.12992,152.1109 327.27992,155.6559 328.90117,162.6484 C 332.56367,178.4584 321.52367,206.77465 308.82867,216.3134 z M 274.87867,214.26215 C 275.56617,213.85215 276.33367,213.33965 277.18742,212.69965 C 277.95867,212.16715 278.73117,211.56465 279.50742,210.90965 C 280.03867,210.53465 280.57617,210.1434 281.12367,209.7384 C 280.81617,211.15965 280.37617,212.71465 279.70242,214.27215 C 277.65617,219.0084 275.17117,221.02465 274.53117,220.8834 C 273.18367,220.5809 273.22242,219.12965 274.87867,214.26215 z M 305.35117,218.5934 C 305.35117,218.5934 305.35617,218.5984 305.35117,218.5984 C 305.35117,218.6034 305.35117,218.6034 305.34742,218.6034 C 305.25867,218.74965 300.85492,225.90715 295.48867,234.03715 C 292.83742,233.42715 289.94617,233.0859 286.91367,233.0859 C 279.80992,233.0859 273.46742,234.9209 269.24867,237.80215 C 266.02117,234.76465 258.37367,229.5109 245.19992,231.0784 C 219.03867,234.1934 198.10617,225.3759 181.21117,204.1284 C 180.95242,201.9359 177.68117,193.6884 179.16992,174.9234 C 179.89242,165.83215 183.87742,148.5809 193.68117,134.41715 C 201.50367,123.1059 210.71242,113.5934 227.29992,112.58965 C 234.17992,112.1734 240.20992,114.32215 244.91742,118.9484 C 256.61617,130.45965 263.87742,155.20215 262.12867,176.0959 C 260.31742,197.7559 259.60492,209.25465 264.56992,213.4759 C 265.94742,214.6484 267.73492,215.17965 269.96117,215.10715 C 268.49617,218.73465 267.39742,225.06715 267.70992,229.9209 C 267.89992,232.8709 269.75617,234.23715 271.98242,233.7834 C 279.22867,232.29965 291.51367,208.8734 292.65117,197.4334 C 292.65617,197.4134 292.66117,197.39465 292.66117,197.37965 C 293.82867,195.90965 294.98992,194.4209 296.14742,192.9309 C 302.65117,184.58215 309.37492,175.94965 314.23867,175.01215 C 315.76242,174.7184 316.40117,175.3684 316.74867,175.8809 C 320.70367,181.6909 312.18242,207.8334 305.35117,218.5934 z M 287.52492,245.9659 C 282.50492,245.9659 278.43742,244.26715 278.43742,242.17215 C 278.43742,240.07215 282.50492,238.3734 287.52492,238.3734 C 292.53867,238.3734 296.60617,240.07215 296.60617,242.17215 C 296.60617,244.26715 292.53867,245.9659 287.52492,245.9659 z M 214.01867,279.3059 C 190.87367,277.8559 171.08367,269.05715 163.65242,265.3409 C 162.32867,264.67715 160.78617,263.96965 159.07242,263.23215 C 138.27117,251.74215 133.13492,230.39965 131.89492,221.73715 C 130.24367,210.19215 132.15867,202.3459 136.51867,196.04715 C 139.52617,191.7109 146.98242,186.6134 154.01867,187.0184 C 163.08617,187.5409 169.89742,192.8534 179.57992,205.08965 C 196.93867,227.0409 218.47617,236.15215 245.42492,232.9434 C 257.45117,231.5084 264.60992,236.2059 267.71492,238.9834 C 265.32742,241.04965 263.93117,243.51465 263.93117,246.1709 C 263.93117,251.3859 269.30242,255.8784 277.06117,257.9784 C 260.05867,273.6709 238.87242,280.8584 214.01867,279.3059 z M 350.20492,124.2459 C 350.22992,123.96715 350.13242,123.6909 349.93617,123.4934 C 338.73117,112.28965 306.17742,108.8859 301.75742,108.47215 C 297.32867,100.83715 292.10992,93.4134 286.08367,86.23715 C 271.20117,68.49715 251.84617,52.59215 228.55992,38.96465 C 173.75992,6.88965 101.64617,-8.24035 64.38492,4.5184 C 64.03367,4.63965 63.78492,4.95715 63.75492,5.32715 C 63.72617,5.69715 63.91617,6.05215 64.24367,6.22965 C 88.05617,19.1809 120.19992,55.6184 128.43242,85.62715 C 100.57617,83.39215 71.95242,89.2209 47.68617,102.1309 C 24.80492,114.3034 7.44617,131.92715 0.06867,150.4759 C -0.05383,150.7784 -0.01008,151.11465 0.18117,151.3784 C 0.37617,151.63715 0.68367,151.77965 1.00617,151.75965 C 51.75367,148.02465 87.75867,171.83715 93.97492,176.2709 C 53.92117,207.7709 29.16992,245.8734 29.16992,263.32465 C 29.16992,263.64715 29.33117,263.94465 29.60492,264.1209 C 29.87867,264.2909 30.21992,264.3109 30.51242,264.16965 C 79.76492,240.4684 135.65492,255.19465 158.43742,264.97465 C 158.47617,264.99465 158.51617,265.0184 158.55492,265.0384 C 158.60367,265.06715 158.66242,265.07215 158.71617,265.09215 C 160.32242,265.7859 161.76742,266.45465 163.01742,267.07965 C 170.55617,270.8484 190.61992,279.76965 214.10617,281.23965 C 239.94617,282.8559 261.90492,275.20465 279.44867,258.55465 C 281.85117,259.04215 284.42367,259.3209 287.11867,259.3209 C 299.81492,259.3209 310.10242,253.4609 310.10242,246.23465 C 310.10242,241.1609 305.02992,236.77715 297.62242,234.6034 C 302.33367,227.4459 306.22117,221.1659 307.02117,219.86215 C 321.22617,212.6209 334.17992,182.46215 331.29867,164.1959 C 333.85242,161.84215 347.91492,147.90715 350.20492,124.2459 L 350.20492,124.2459 z"
            style="fill:#000000"/>
</svg>
